<?xml version="1.0" encoding="UTF-8"?>
<svg id="Capa_1" xmlns="http://www.w3.org/2000/svg" viewBox="0 0 1698 955">
<path d="M1392.72,2.92c175.77,18.94,307.41,170.74,302.13,342.3-5.03,163.57-133.22,302.75-300.52,321.41-369.09,.54-738.18,1.07-1107.27,1.61V-.3C655.61,.77,1024.16,1.84,1392.72,2.92Zm298.91,708.72H287.06v242.67H1691.63v-242.67ZM243.67-.3H1V954.3H243.67V-.3Zm113.43,462.2v-76.28h-11.93v86.02h60.09v-9.75h-48.16Zm72.69,3.19c7.06,5.53,15.85,8.29,26.38,8.29s19.32-2.76,26.26-8.29c6.94-5.56,10.42-12.75,10.42-21.56v-57.91h-11.93v55.05c0,6.98-2.23,12.45-6.69,16.41-4.46,3.96-10.48,5.94-18.06,5.94s-13.61-1.98-18.09-5.94c-4.48-3.96-6.72-9.43-6.72-16.41v-55.05h-11.93v57.91c0,8.77,3.45,15.96,10.36,21.56Zm156.3,1.96v-10.75c-6.42,4.48-15.06,6.72-25.93,6.72-10.23,0-18.84-3.04-25.82-9.13-6.94-6.16-10.42-14.58-10.42-25.26s3.47-19.1,10.42-25.15c6.95-6.16,15.55-9.24,25.82-9.24,10.86,0,19.51,2.24,25.93,6.72v-10.75c-6.27-4.22-15.1-6.33-26.49-6.33-8.89,0-16.97,1.72-24.25,5.15-7.17,3.4-13.01,8.57-17.53,15.51-4.44,6.83-6.66,14.86-6.66,24.08s2.22,17.25,6.66,24.08c4.48,6.8,10.31,11.94,17.5,15.43,7.19,3.49,15.28,5.24,24.28,5.24,11.39,0,20.22-2.11,26.49-6.33Zm98.68,4.59l-37.97-86.02h-12.15l-37.02,86.02h11.93l9.41-22.96h43.46l9.75,22.96h12.6Zm-26.27-32.09h-35.79l17.58-42.79,18.2,42.79Zm-274.81,169.72c9.67,0,17.4-2.22,23.19-6.66,5.94-4.48,8.9-10.29,8.9-17.42,0-5.3-1.7-9.82-5.1-13.55-3.4-3.73-8.38-6.48-14.95-8.23,4.89-1.57,8.89-4.02,11.98-7.37,3.1-3.34,4.65-7.01,4.65-11,0-6.87-2.59-12.22-7.76-16.04-5.17-3.83-12.37-5.74-21.59-5.74h-37.86v86.02h38.53Zm-26.6-76.39h21.79c7.43,0,12.75,1.05,15.96,3.14s4.82,5.49,4.82,10.19c0,9.3-6.93,13.94-20.78,13.94h-21.79v-27.27Zm45.98,51.75c0,10.01-7.3,15.01-21.9,15.01h-24.08v-30.19h22.46c15.68,0,23.52,5.06,23.52,15.18Zm45.98,14.9v-29.12h41.61v-9.52h-41.61v-27.89h45.75v-9.74h-57.68v86.02h57.68v-9.74h-45.75Zm100.53-22.35l28.34,32.09h15.4l-30.41-33.94c6.83-1.61,12.45-4.67,16.86-9.18,4.44-4.55,6.66-9.88,6.66-15.96,0-8.33-2.91-14.9-8.74-19.71-5.71-4.82-13.52-7.22-23.41-7.22h-37.13v86.02h11.93v-32.09h20.5Zm2.3-44.19c6.83,0,12.18,1.54,16.04,4.62s5.8,7.27,5.8,12.57-2.02,9.45-6.05,12.54c-4.03,3.1-9.3,4.65-15.79,4.65h-22.79v-34.39h22.79Zm152.66,.78l5.26,75.49h11.26l-6.55-86.02h-15.96l-34.05,72.69-34.16-72.69h-16.07l-6.55,86.02h11.26l5.26-75.49,34.67,75.49h10.75l34.89-75.49Zm51.8,65.75v-29.12h41.61v-9.52h-41.61v-27.89h45.75v-9.74h-57.68v86.02h57.68v-9.74h-45.75Zm81.26-12.6c0,4.44-1.44,7.77-4.31,9.97-2.88,2.2-6.81,3.3-11.82,3.3-2.99,0-5.97-.45-8.96-1.34v9.02c2.69,1.31,6.51,1.96,11.48,1.96,7.13,0,13.2-1.79,18.2-5.38,4.96-3.55,7.45-8.62,7.45-15.23v-65.97h-12.04v63.67Zm106.85,11.93c8.44-8.14,12.66-19,12.66-32.59s-4.22-24.34-12.66-32.48c-8.48-8.18-19.06-12.26-31.75-12.26s-23.54,4.01-31.98,12.04c-8.36,7.99-12.54,18.89-12.54,32.71s4.18,24.72,12.54,32.71c8.44,8.03,19.1,12.04,31.98,12.04s23.39-4.05,31.75-12.15Zm-8.9-57.96c5.86,6.16,8.79,14.62,8.79,25.37s-2.93,19.21-8.79,25.37c-5.75,6.01-13.37,9.02-22.85,9.02s-17.32-3.01-23.07-9.02c-5.79-6.05-8.68-14.5-8.68-25.37s2.89-19.32,8.68-25.37c5.75-6.01,13.44-9.02,23.07-9.02s17.1,3.01,22.85,9.02Z"/></svg>